<svg width="252" height="214" viewBox="0 0 252 214" fill="none" xmlns="http://www.w3.org/2000/svg">
<path d="M71.375 204.691C88.7127 210.429 131.448 218.918 163.688 206.972C203.989 192.04 208.555 139.986 203.592 126.713C207.562 130.169 217.568 135.382 225.826 128.579C236.149 120.076 242.304 116.758 244.09 99.1299C248.656 98.5078 255.724 94.7333 247.465 84.6127C251.039 77.7688 248.656 50.1861 225.826 39.1945C229.333 38.5032 234.222 37.2278 229.598 32.558C223.642 26.5438 212.128 26.7511 209.746 26.5438V21.5664L212.922 18.4556L190.29 27.5807C189.827 30.8989 186.28 36.8717 175.798 34.2171L171.431 78.1836C163.49 70.7868 132.758 58.8964 73.3602 70.5102C76.9336 56.6152 82.0952 27.4563 72.5661 26.9585C71.1102 26.9585 68.0397 25.6727 65.8163 24.6773C63.5928 23.6818 60.2576 19.9073 56.2871 23.0181C55.1622 25.1612 52.674 29.4057 51.7211 29.2398C50.7682 29.0739 50.0006 23.6403 49.7359 20.9443C48.6771 19.4234 45.9639 18.3311 43.5816 26.129C42.7875 25.2994 41.3185 22.8522 41.7949 19.6999C42.3905 15.7595 38.6186 11.8191 35.6407 17.8334C33.2584 22.6448 33.457 26.4746 33.854 27.7881C30.3468 26.7511 22.8162 25.1335 20.7515 26.9585C18.6869 28.7836 24.2588 32.9728 27.3028 34.8393L17.178 36.7058C15.5237 37.2588 11.6988 39.5678 9.63414 44.3792C9.10474 46.2457 9.03857 52.6748 5.26662 53.9191C3.21521 55.6473 -0.689083 60.7214 0.105011 67.192C0.899105 73.6625 2.02412 85.9261 2.48736 91.2491C7.45045 99.5447 3.47998 111.781 17.5751 110.536C17.6413 113.094 20.7912 120.035 32.8615 127.335L46.7581 129.409C45.6993 133.349 45.3684 138.326 43.5817 141.852C44.6405 143.442 46.7581 146.788 46.7581 147.452C46.7581 148.281 41.5965 166.946 49.5374 180.426C55.8902 191.211 66.7428 201.096 71.375 204.691Z" fill="#84877E"/>
<path d="M125.638 162.474L105.009 160.01C98.8596 170.07 84.1811 200.66 105.009 200.249C125.836 199.839 124.911 178.419 125.638 162.474Z" fill="#615F5D"/>
<path d="M57.2798 155.894C62.1105 153.482 73.7175 150.478 81.4997 157.754" stroke="#0F1829" stroke-width="9"/>
<path d="M142.645 163.749C150.585 159.614 161.107 159.573 166.666 166.85" stroke="#0F1829" stroke-width="9"/>
<path d="M219.026 101.926C221.66 100.324 223.958 98.1846 225.789 95.6309C227.62 93.0772 228.948 90.1587 229.697 87.0422C230.447 83.9256 230.603 80.6719 230.157 77.467C229.71 74.262 228.671 71.1685 227.097 68.363C225.523 65.5576 223.446 63.0952 220.984 61.1164C218.522 59.1376 215.723 57.6812 212.748 56.8303C209.773 55.9794 206.679 55.7506 203.643 56.1572C200.608 56.5637 197.69 57.5975 195.056 59.1996L207.041 80.5626L219.026 101.926Z" fill="#171F1A"/>
<path d="M27.3081 93.0297C24.6743 91.4276 22.3763 89.2886 20.5453 86.7349C18.7143 84.1812 17.3862 81.2627 16.6367 78.1462C15.8873 75.0296 15.7312 71.7759 16.1774 68.571C16.6236 65.366 17.6633 62.2725 19.2372 59.467C20.8111 56.6616 22.8883 54.1992 25.3503 52.2204C27.8123 50.2416 30.6108 48.7852 33.5861 47.9343C36.5614 47.0834 39.6551 46.8546 42.6907 47.2612C45.7263 47.6677 48.6443 48.7015 51.2781 50.3036L39.2931 71.6666L27.3081 93.0297Z" fill="#171F1A"/>
<path d="M174.715 10.9636C154.501 15.251 102.221 19.4568 70.6714 10.9636C71.1357 34.4046 71.3961 47.547 71.8605 70.988C97.6237 67.3811 155.333 66.6189 170.553 78.542L174.715 65.8839C174.715 44.4362 174.715 32.4113 174.715 10.9636Z" fill="#0F1829"/>
<path d="M70.6714 10.9636C92.1407 2.8651 146.177 -6.67619 174.715 10.9636C154.501 15.251 102.221 19.4568 70.6714 10.9636Z" fill="#0F1829"/>
<path d="M70.6714 10.9636C92.1407 2.8651 146.177 -6.67619 174.715 10.9636M70.6714 10.9636C102.221 19.4568 154.501 15.251 174.715 10.9636M70.6714 10.9636C71.1357 34.4046 71.3961 47.547 71.8605 70.988C97.6237 67.3811 155.333 66.6188 170.553 78.542L174.715 65.8839C174.715 44.4362 174.715 32.4113 174.715 10.9636" stroke="#0F1829" stroke-width="2"/>
</svg>
